<svg width="9" height="22" viewBox="0 0 9 22" fill="none" xmlns="http://www.w3.org/2000/svg">
<path d="M8.67871 22H5.9541V3.93848L0.490234 5.94531V3.48438L8.25391 0.569336H8.67871V22Z" fill="white"/>
<path d="M8.67871 22V28H14.6787V22H8.67871ZM5.9541 22H-0.0458984V28H5.9541V22ZM5.9541 3.93848H11.9541V-4.65719L3.88547 -1.69364L5.9541 3.93848ZM0.490234 5.94531H-5.50977V14.541L2.55887 11.5774L0.490234 5.94531ZM0.490234 3.48438L-1.61883 -2.13273L-5.50977 -0.671792V3.48438H0.490234ZM8.25391 0.569336V-5.43066H7.16462L6.14484 -5.04777L8.25391 0.569336ZM8.67871 0.569336H14.6787V-5.43066H8.67871V0.569336ZM8.67871 16H5.9541V28H8.67871V16ZM11.9541 22V3.93848H-0.0458984V22H11.9541ZM3.88547 -1.69364L-1.5784 0.313194L2.55887 11.5774L8.02273 9.57059L3.88547 -1.69364ZM6.49023 5.94531V3.48438H-5.50977V5.94531H6.49023ZM2.5993 9.10148L10.363 6.18644L6.14484 -5.04777L-1.61883 -2.13273L2.5993 9.10148ZM8.25391 6.56934H8.67871V-5.43066H8.25391V6.56934ZM2.67871 0.569336V22H14.6787V0.569336H2.67871Z" fill="black" fill-opacity="0.1"/>
</svg>
